M48
; DRILL file {KiCad (7.0.0-0)} date 2023年03月24日 金曜日 09:46:05
; FORMAT={-:-/ absolute / metric / decimal}
; #@! TF.CreationDate,2023-03-24T09:46:05+09:00
; #@! TF.GenerationSoftware,Kicad,Pcbnew,(7.0.0-0)
; #@! TF.FileFunction,MixedPlating,1,2
FMAT,2
METRIC
; #@! TA.AperFunction,Plated,PTH,ViaDrill
T1C0.300
; #@! TA.AperFunction,Plated,PTH,ComponentDrill
T2C0.800
; #@! TA.AperFunction,Plated,PTH,ComponentDrill
T3C1.000
; #@! TA.AperFunction,NonPlated,NPTH,ComponentDrill
T4C3.200
%
G90
G05
T1
X45.995Y80.678
X59.417Y64.073
T2
X15.8Y89.8
X15.8Y87.3
X28.38Y75.9
X28.38Y73.36
X28.38Y70.82
X28.38Y68.28
X28.38Y65.74
X28.38Y63.2
X28.38Y60.66
X33.85Y79.1
X36.0Y75.9
X36.0Y73.36
X36.0Y70.82
X36.0Y68.28
X36.0Y65.74
X36.0Y63.2
X36.0Y60.66
X36.35Y79.1
X57.25Y80.645
X57.25Y78.105
X57.25Y75.565
X57.25Y73.025
X57.25Y70.485
X57.25Y67.945
X57.25Y65.405
X57.25Y62.865
X57.25Y60.325
X63.445Y56.025
X64.45Y79.7
X64.45Y77.16
X64.45Y74.62
X64.45Y72.08
X64.45Y69.54
X64.45Y67.0
X64.45Y64.46
X64.45Y61.92
X70.25Y83.0
X72.07Y79.7
X72.07Y77.16
X72.07Y74.62
X72.07Y72.08
X72.07Y69.54
X72.07Y67.0
X72.07Y64.46
X72.07Y61.92
X72.75Y83.0
X73.605Y56.025
X77.2Y79.625
X77.2Y77.085
X77.2Y74.545
X77.2Y72.005
X77.2Y69.465
X77.2Y66.925
X77.2Y64.385
X81.1Y56.58
X81.1Y51.5
X82.75Y83.0
X83.64Y54.04
X84.82Y79.625
X84.82Y77.085
X84.82Y74.545
X84.82Y72.005
X84.82Y69.465
X84.82Y66.925
X84.82Y64.385
X85.25Y83.0
T3
X4.22Y87.78
X4.22Y85.24
X4.22Y82.7
X4.22Y80.16
X4.22Y77.62
X4.22Y75.08
X4.22Y72.54
X4.22Y58.91
X4.22Y56.37
X4.22Y53.83
X4.22Y51.29
X4.22Y48.75
X4.22Y46.21
X4.22Y43.67
X5.33Y19.99
X5.33Y17.45
X5.33Y14.91
X5.33Y12.37
X5.33Y9.83
X5.33Y7.29
X5.33Y4.75
X6.76Y87.78
X6.76Y85.24
X6.76Y82.7
X6.76Y80.16
X6.76Y77.62
X6.76Y75.08
X6.76Y72.54
X6.76Y58.91
X6.76Y56.37
X6.76Y53.83
X6.76Y51.29
X6.76Y48.75
X6.76Y46.21
X6.76Y43.67
X7.87Y19.99
X7.87Y17.45
X7.87Y14.91
X7.87Y12.37
X7.87Y9.83
X7.87Y7.29
X7.87Y4.75
X22.07Y42.97
X24.61Y42.97
X26.02Y89.7
X26.02Y87.16
X27.15Y42.97
X28.56Y89.7
X28.56Y87.16
X29.69Y42.97
X31.1Y89.7
X31.1Y87.16
X32.23Y42.97
X33.64Y89.7
X33.64Y87.16
X34.77Y42.97
X36.18Y89.7
X36.18Y87.16
X37.31Y42.97
X38.72Y89.7
X38.72Y87.16
X39.85Y42.97
X41.26Y89.7
X41.26Y87.16
X42.39Y42.97
X43.8Y89.7
X43.8Y87.16
X44.93Y42.97
X46.26Y78.34
X46.26Y75.8
X46.26Y73.26
X46.26Y70.72
X46.26Y68.18
X46.26Y65.64
X46.26Y63.1
X46.26Y60.56
X46.34Y89.7
X46.34Y87.16
X47.47Y42.97
X48.8Y78.34
X48.8Y75.8
X48.8Y73.26
X48.8Y70.72
X48.8Y68.18
X48.8Y65.64
X48.8Y63.1
X48.8Y60.56
X48.88Y89.7
X48.88Y87.16
X50.01Y42.97
X51.42Y89.7
X51.42Y87.16
X52.55Y42.97
X53.96Y89.7
X53.96Y87.16
X55.09Y42.97
X56.5Y89.7
X56.5Y87.16
X57.63Y42.97
X59.04Y89.7
X59.04Y87.16
X60.17Y42.97
X61.58Y89.7
X61.58Y87.16
X64.12Y89.7
X64.12Y87.16
X64.445Y50.025
X66.66Y89.7
X66.66Y87.16
X66.985Y50.025
X69.2Y89.7
X69.2Y87.16
X69.525Y50.025
X71.74Y89.7
X71.74Y87.16
X74.28Y89.7
X74.28Y87.16
T4
X4.7Y35.05
X5.5Y95.42
X94.48Y33.91
X94.49Y95.49
T0
M30
