G04 #@! TF.GenerationSoftware,KiCad,Pcbnew,(7.0.0-0)*
G04 #@! TF.CreationDate,2023-03-24T09:46:00+09:00*
G04 #@! TF.ProjectId,KZ80-SC1602,4b5a3830-2d53-4433-9136-30322e6b6963,rev?*
G04 #@! TF.SameCoordinates,PX5f5e100PY8f0d180*
G04 #@! TF.FileFunction,Copper,L1,Top*
G04 #@! TF.FilePolarity,Positive*
%FSLAX46Y46*%
G04 Gerber Fmt 4.6, Leading zero omitted, Abs format (unit mm)*
G04 Created by KiCad (PCBNEW (7.0.0-0)) date 2023-03-24 09:46:00*
%MOMM*%
%LPD*%
G01*
G04 APERTURE LIST*
G04 #@! TA.AperFunction,ComponentPad*
%ADD10R,1.600000X1.600000*%
G04 #@! TD*
G04 #@! TA.AperFunction,ComponentPad*
%ADD11O,1.600000X1.600000*%
G04 #@! TD*
G04 #@! TA.AperFunction,ComponentPad*
%ADD12R,1.700000X1.700000*%
G04 #@! TD*
G04 #@! TA.AperFunction,ComponentPad*
%ADD13O,1.700000X1.700000*%
G04 #@! TD*
G04 #@! TA.AperFunction,ComponentPad*
%ADD14C,1.600000*%
G04 #@! TD*
G04 #@! TA.AperFunction,ComponentPad*
%ADD15C,1.440000*%
G04 #@! TD*
G04 #@! TA.AperFunction,ViaPad*
%ADD16C,0.600000*%
G04 #@! TD*
G04 #@! TA.AperFunction,Conductor*
%ADD17C,0.200000*%
G04 #@! TD*
G04 #@! TA.AperFunction,Conductor*
%ADD18C,0.600000*%
G04 #@! TD*
G04 APERTURE END LIST*
D10*
X57249999Y60324999D03*
D11*
X57249999Y62864999D03*
X57249999Y65404999D03*
X57249999Y67944999D03*
X57249999Y70484999D03*
X57249999Y73024999D03*
X57249999Y75564999D03*
X57249999Y78104999D03*
X57249999Y80644999D03*
D12*
X64444999Y50024999D03*
D13*
X66984999Y50024999D03*
X69524999Y50024999D03*
D14*
X82750000Y83000000D03*
X85250000Y83000000D03*
D15*
X81100000Y51500000D03*
X83640000Y54040000D03*
X81100000Y56580000D03*
D14*
X63445000Y56025000D03*
D11*
X73604999Y56024999D03*
D14*
X70250000Y83000000D03*
X72750000Y83000000D03*
D10*
X15799999Y87299999D03*
D14*
X15800000Y89800000D03*
D12*
X4219999Y87779999D03*
D13*
X6759999Y87779999D03*
X4219999Y85239999D03*
X6759999Y85239999D03*
X4219999Y82699999D03*
X6759999Y82699999D03*
X4219999Y80159999D03*
X6759999Y80159999D03*
X4219999Y77619999D03*
X6759999Y77619999D03*
X4219999Y75079999D03*
X6759999Y75079999D03*
X4219999Y72539999D03*
X6759999Y72539999D03*
D10*
X28379999Y75899999D03*
D11*
X28379999Y73359999D03*
X28379999Y70819999D03*
X28379999Y68279999D03*
X28379999Y65739999D03*
X28379999Y63199999D03*
X28379999Y60659999D03*
X35999999Y60659999D03*
X35999999Y63199999D03*
X35999999Y65739999D03*
X35999999Y68279999D03*
X35999999Y70819999D03*
X35999999Y73359999D03*
X35999999Y75899999D03*
D12*
X46259999Y78339999D03*
D13*
X48799999Y78339999D03*
X46259999Y75799999D03*
X48799999Y75799999D03*
X46259999Y73259999D03*
X48799999Y73259999D03*
X46259999Y70719999D03*
X48799999Y70719999D03*
X46259999Y68179999D03*
X48799999Y68179999D03*
X46259999Y65639999D03*
X48799999Y65639999D03*
X46259999Y63099999D03*
X48799999Y63099999D03*
X46259999Y60559999D03*
X48799999Y60559999D03*
D10*
X64449999Y79699999D03*
D11*
X64449999Y77159999D03*
X64449999Y74619999D03*
X64449999Y72079999D03*
X64449999Y69539999D03*
X64449999Y66999999D03*
X64449999Y64459999D03*
X64449999Y61919999D03*
X72069999Y61919999D03*
X72069999Y64459999D03*
X72069999Y66999999D03*
X72069999Y69539999D03*
X72069999Y72079999D03*
X72069999Y74619999D03*
X72069999Y77159999D03*
X72069999Y79699999D03*
D12*
X22069999Y42969999D03*
D13*
X24609999Y42969999D03*
X27149999Y42969999D03*
X29689999Y42969999D03*
X32229999Y42969999D03*
X34769999Y42969999D03*
X37309999Y42969999D03*
X39849999Y42969999D03*
X42389999Y42969999D03*
X44929999Y42969999D03*
X47469999Y42969999D03*
X50009999Y42969999D03*
X52549999Y42969999D03*
X55089999Y42969999D03*
X57629999Y42969999D03*
X60169999Y42969999D03*
D12*
X26019999Y87159999D03*
D13*
X26019999Y89699999D03*
X28559999Y87159999D03*
X28559999Y89699999D03*
X31099999Y87159999D03*
X31099999Y89699999D03*
X33639999Y87159999D03*
X33639999Y89699999D03*
X36179999Y87159999D03*
X36179999Y89699999D03*
X38719999Y87159999D03*
X38719999Y89699999D03*
X41259999Y87159999D03*
X41259999Y89699999D03*
X43799999Y87159999D03*
X43799999Y89699999D03*
X46339999Y87159999D03*
X46339999Y89699999D03*
X48879999Y87159999D03*
X48879999Y89699999D03*
X51419999Y87159999D03*
X51419999Y89699999D03*
X53959999Y87159999D03*
X53959999Y89699999D03*
X56499999Y87159999D03*
X56499999Y89699999D03*
X59039999Y87159999D03*
X59039999Y89699999D03*
X61579999Y87159999D03*
X61579999Y89699999D03*
X64119999Y87159999D03*
X64119999Y89699999D03*
X66659999Y87159999D03*
X66659999Y89699999D03*
X69199999Y87159999D03*
X69199999Y89699999D03*
X71739999Y87159999D03*
X71739999Y89699999D03*
X74279999Y87159999D03*
X74279999Y89699999D03*
D12*
X4219999Y58909999D03*
D13*
X6759999Y58909999D03*
X4219999Y56369999D03*
X6759999Y56369999D03*
X4219999Y53829999D03*
X6759999Y53829999D03*
X4219999Y51289999D03*
X6759999Y51289999D03*
X4219999Y48749999D03*
X6759999Y48749999D03*
X4219999Y46209999D03*
X6759999Y46209999D03*
X4219999Y43669999D03*
X6759999Y43669999D03*
D14*
X33850000Y79100000D03*
X36350000Y79100000D03*
D10*
X77199999Y79624999D03*
D11*
X77199999Y77084999D03*
X77199999Y74544999D03*
X77199999Y72004999D03*
X77199999Y69464999D03*
X77199999Y66924999D03*
X77199999Y64384999D03*
X84819999Y64384999D03*
X84819999Y66924999D03*
X84819999Y69464999D03*
X84819999Y72004999D03*
X84819999Y74544999D03*
X84819999Y77084999D03*
X84819999Y79624999D03*
D12*
X7869999Y4749999D03*
D13*
X5329999Y4749999D03*
X7869999Y7289999D03*
X5329999Y7289999D03*
X7869999Y9829999D03*
X5329999Y9829999D03*
X7869999Y12369999D03*
X5329999Y12369999D03*
X7869999Y14909999D03*
X5329999Y14909999D03*
X7869999Y17449999D03*
X5329999Y17449999D03*
X7869999Y19989999D03*
X5329999Y19989999D03*
D16*
X45994600Y80678300D03*
X59417200Y64073400D03*
D17*
X64450000Y69540000D02*
X63349900Y69540000D01*
X62404900Y70485000D02*
X57250000Y70485000D01*
X63349900Y69540000D02*
X62404900Y70485000D01*
X33865300Y80678300D02*
X45994600Y80678300D01*
X31809600Y78622600D02*
X33865300Y80678300D01*
X31809600Y74249600D02*
X31809600Y78622600D01*
X28380000Y70820000D02*
X31809600Y74249600D01*
X64450000Y64460000D02*
X63349900Y64460000D01*
X62963300Y64073400D02*
X59417200Y64073400D01*
X63349900Y64460000D02*
X62963300Y64073400D01*
X48880000Y87160000D02*
X47729900Y87160000D01*
X28380000Y73360000D02*
X28380000Y74460100D01*
X28997000Y74460100D02*
X28380000Y74460100D01*
X30609300Y76072400D02*
X28997000Y74460100D01*
X30609300Y78555900D02*
X30609300Y76072400D01*
X33573500Y81520100D02*
X30609300Y78555900D01*
X41764300Y81520100D02*
X33573500Y81520100D01*
X42164400Y81920200D02*
X41764300Y81520100D01*
X42730100Y81920200D02*
X42164400Y81920200D01*
X47729900Y86920000D02*
X42730100Y81920200D01*
X47729900Y87160000D02*
X47729900Y86920000D01*
X28380000Y75900000D02*
X28380000Y77000100D01*
X46340000Y87160000D02*
X45189900Y87160000D01*
X45189900Y86872500D02*
X45189900Y87160000D01*
X40237600Y81920200D02*
X45189900Y86872500D01*
X33300100Y81920200D02*
X40237600Y81920200D01*
X28380000Y77000100D02*
X33300100Y81920200D01*
X77816900Y78185100D02*
X77200000Y78185100D01*
X78300200Y78668400D02*
X77816900Y78185100D01*
X78300200Y80569800D02*
X78300200Y78668400D01*
X77122700Y81747300D02*
X78300200Y80569800D01*
X50790600Y81747300D02*
X77122700Y81747300D01*
X48533500Y79490200D02*
X50790600Y81747300D01*
X43577900Y79490200D02*
X48533500Y79490200D01*
X41412700Y77325000D02*
X43577900Y79490200D01*
X35791800Y77325000D02*
X41412700Y77325000D01*
X34898100Y76431300D02*
X35791800Y77325000D01*
X34898100Y75384500D02*
X34898100Y76431300D01*
X35796900Y74485700D02*
X34898100Y75384500D01*
X36430200Y74485700D02*
X35796900Y74485700D01*
X37115200Y73800700D02*
X36430200Y74485700D01*
X37115200Y65246500D02*
X37115200Y73800700D01*
X36338700Y64470000D02*
X37115200Y65246500D01*
X35658500Y64470000D02*
X36338700Y64470000D01*
X34770000Y63581500D02*
X35658500Y64470000D01*
X34770000Y42970000D02*
X34770000Y63581500D01*
X77200000Y77085000D02*
X77200000Y78185100D01*
X83640000Y52515500D02*
X83640000Y54040000D01*
X38414500Y7290000D02*
X83640000Y52515500D01*
X7870000Y7290000D02*
X38414500Y7290000D01*
X7870000Y7290000D02*
X7870000Y8440100D01*
X7582400Y8440100D02*
X7870000Y8440100D01*
X6719900Y9302600D02*
X7582400Y8440100D01*
X6719900Y12668500D02*
X6719900Y9302600D01*
X5748400Y13640000D02*
X6719900Y12668500D01*
X4964000Y13640000D02*
X5748400Y13640000D01*
X3370700Y15233300D02*
X4964000Y13640000D01*
X3370700Y20813700D02*
X3370700Y15233300D01*
X4919800Y22362800D02*
X3370700Y20813700D01*
X6542800Y22362800D02*
X4919800Y22362800D01*
X27150000Y42970000D02*
X6542800Y22362800D01*
X47410100Y62861700D02*
X47410100Y63100000D01*
X48561600Y61710200D02*
X47410100Y62861700D01*
X63103900Y61710200D02*
X48561600Y61710200D01*
X64015300Y60798800D02*
X63103900Y61710200D01*
X69848700Y60798800D02*
X64015300Y60798800D01*
X70969900Y61920000D02*
X69848700Y60798800D01*
X72070000Y61920000D02*
X70969900Y61920000D01*
X46260000Y63100000D02*
X47410100Y63100000D01*
X47410100Y65401700D02*
X47410100Y65640000D01*
X48561600Y64250200D02*
X47410100Y65401700D01*
X58358000Y64250200D02*
X48561600Y64250200D01*
X59276600Y63331600D02*
X58358000Y64250200D01*
X69841500Y63331600D02*
X59276600Y63331600D01*
X70969900Y64460000D02*
X69841500Y63331600D01*
X72070000Y64460000D02*
X70969900Y64460000D01*
X46260000Y65640000D02*
X47410100Y65640000D01*
X47410100Y67941700D02*
X47410100Y68180000D01*
X48561600Y66790200D02*
X47410100Y67941700D01*
X60341700Y66790200D02*
X48561600Y66790200D01*
X61281700Y65850200D02*
X60341700Y66790200D01*
X69820100Y65850200D02*
X61281700Y65850200D01*
X70969900Y67000000D02*
X69820100Y65850200D01*
X72070000Y67000000D02*
X70969900Y67000000D01*
X46260000Y68180000D02*
X47410100Y68180000D01*
X47410100Y70481700D02*
X47410100Y70720000D01*
X48561600Y69330200D02*
X47410100Y70481700D01*
X62993800Y69330200D02*
X48561600Y69330200D01*
X63909000Y68415000D02*
X62993800Y69330200D01*
X69844900Y68415000D02*
X63909000Y68415000D01*
X70969900Y69540000D02*
X69844900Y68415000D01*
X72070000Y69540000D02*
X70969900Y69540000D01*
X46260000Y70720000D02*
X47410100Y70720000D01*
X47410100Y73021700D02*
X47410100Y73260000D01*
X48561600Y71870200D02*
X47410100Y73021700D01*
X60341700Y71870200D02*
X48561600Y71870200D01*
X61249100Y70962800D02*
X60341700Y71870200D01*
X69852700Y70962800D02*
X61249100Y70962800D01*
X70969900Y72080000D02*
X69852700Y70962800D01*
X72070000Y72080000D02*
X70969900Y72080000D01*
X46260000Y73260000D02*
X47410100Y73260000D01*
X47410100Y75561700D02*
X47410100Y75800000D01*
X48561600Y74410200D02*
X47410100Y75561700D01*
X62993800Y74410200D02*
X48561600Y74410200D01*
X63909000Y73495000D02*
X62993800Y74410200D01*
X69844900Y73495000D02*
X63909000Y73495000D01*
X70969900Y74620000D02*
X69844900Y73495000D01*
X72070000Y74620000D02*
X70969900Y74620000D01*
X46260000Y75800000D02*
X47410100Y75800000D01*
X75060200Y78585300D02*
X76099900Y79625000D01*
X62490500Y78585300D02*
X75060200Y78585300D01*
X61863500Y79212300D02*
X62490500Y78585300D01*
X50822400Y79212300D02*
X61863500Y79212300D01*
X49950100Y78340000D02*
X50822400Y79212300D01*
X48800000Y78340000D02*
X49950100Y78340000D01*
X77200000Y79625000D02*
X76099900Y79625000D01*
X47410100Y78052500D02*
X47410100Y78340000D01*
X48512400Y76950200D02*
X47410100Y78052500D01*
X62993800Y76950200D02*
X48512400Y76950200D01*
X63891300Y76052700D02*
X62993800Y76950200D01*
X69862600Y76052700D02*
X63891300Y76052700D01*
X70969900Y77160000D02*
X69862600Y76052700D01*
X72070000Y77160000D02*
X70969900Y77160000D01*
X46260000Y78340000D02*
X47410100Y78340000D01*
X59295100Y79700000D02*
X58350100Y80645000D01*
X64450000Y79700000D02*
X59295100Y79700000D01*
X57250000Y80645000D02*
X58350100Y80645000D01*
X62404900Y78105000D02*
X57250000Y78105000D01*
X63349900Y77160000D02*
X62404900Y78105000D01*
X64450000Y77160000D02*
X63349900Y77160000D01*
X62404900Y75565000D02*
X57250000Y75565000D01*
X63349900Y74620000D02*
X62404900Y75565000D01*
X64450000Y74620000D02*
X63349900Y74620000D01*
X21231700Y72231600D02*
X7910100Y58910000D01*
X28867800Y72231600D02*
X21231700Y72231600D01*
X31209400Y74573200D02*
X28867800Y72231600D01*
X31209400Y78588300D02*
X31209400Y74573200D01*
X33741000Y81119900D02*
X31209400Y78588300D01*
X42212600Y81119900D02*
X33741000Y81119900D01*
X42412800Y81320100D02*
X42212600Y81119900D01*
X47216000Y81320100D02*
X42412800Y81320100D01*
X52690000Y86794100D02*
X47216000Y81320100D01*
X52690000Y87578400D02*
X52690000Y86794100D01*
X53661500Y88549900D02*
X52690000Y87578400D01*
X54487400Y88549900D02*
X53661500Y88549900D01*
X55349900Y89412400D02*
X54487400Y88549900D01*
X55349900Y89700000D02*
X55349900Y89412400D01*
X56500000Y89700000D02*
X55349900Y89700000D01*
X6760000Y58910000D02*
X7910100Y58910000D01*
X4220000Y58910000D02*
X5346900Y58910000D01*
X29690000Y42970000D02*
X28539900Y42970000D01*
X5330000Y7290000D02*
X5330000Y8440100D01*
X28539900Y43208300D02*
X28539900Y42970000D01*
X27619300Y44128900D02*
X28539900Y43208300D01*
X25880000Y44128900D02*
X27619300Y44128900D01*
X56500000Y87160000D02*
X55349900Y87160000D01*
X12368900Y57640000D02*
X14245900Y55763100D01*
X6381200Y57640000D02*
X12368900Y57640000D01*
X5346900Y58674300D02*
X6381200Y57640000D01*
X5346900Y58910000D02*
X5346900Y58674300D01*
X14245900Y55763100D02*
X25880000Y44128900D01*
X5091700Y8440100D02*
X5330000Y8440100D01*
X2929400Y10602400D02*
X5091700Y8440100D01*
X2929400Y20953900D02*
X2929400Y10602400D01*
X5090100Y23114600D02*
X2929400Y20953900D01*
X6392900Y23114600D02*
X5090100Y23114600D01*
X25880000Y42601700D02*
X6392900Y23114600D01*
X25880000Y44128900D02*
X25880000Y42601700D01*
X55349900Y86872500D02*
X55349900Y87160000D01*
X49114000Y80636600D02*
X55349900Y86872500D01*
X47474900Y80636600D02*
X49114000Y80636600D01*
X47074800Y80236500D02*
X47474900Y80636600D01*
X46401500Y80236500D02*
X47074800Y80236500D01*
X46243200Y80078200D02*
X46401500Y80236500D01*
X45746100Y80078200D02*
X46243200Y80078200D01*
X45587800Y80236500D02*
X45746100Y80078200D01*
X35866600Y80236500D02*
X45587800Y80236500D01*
X34950100Y79320000D02*
X35866600Y80236500D01*
X34950100Y78644300D02*
X34950100Y79320000D01*
X32346100Y76040300D02*
X34950100Y78644300D01*
X32346100Y73196200D02*
X32346100Y76040300D01*
X28699900Y69550000D02*
X32346100Y73196200D01*
X28032800Y69550000D02*
X28699900Y69550000D01*
X14245900Y55763100D02*
X28032800Y69550000D01*
X43800000Y89700000D02*
X42649900Y89700000D01*
X6480100Y19751700D02*
X6480100Y19990000D01*
X7431500Y18800300D02*
X6480100Y19751700D01*
X30057700Y18800300D02*
X7431500Y18800300D01*
X53939900Y42682500D02*
X30057700Y18800300D01*
X53939900Y42970000D02*
X53939900Y42682500D01*
X55090000Y42970000D02*
X53939900Y42970000D01*
X5330000Y19990000D02*
X6480100Y19990000D01*
X6760000Y80160000D02*
X7910100Y80160000D01*
X29298600Y80160000D02*
X7910100Y80160000D01*
X32029800Y82891200D02*
X29298600Y80160000D01*
X36087100Y82891200D02*
X32029800Y82891200D01*
X39990000Y86794100D02*
X36087100Y82891200D01*
X39990000Y87578400D02*
X39990000Y86794100D01*
X40961500Y88549900D02*
X39990000Y87578400D01*
X41787400Y88549900D02*
X40961500Y88549900D01*
X42649900Y89412400D02*
X41787400Y88549900D01*
X42649900Y89700000D02*
X42649900Y89412400D01*
X28707400Y19990000D02*
X7870000Y19990000D01*
X51399900Y42682500D02*
X28707400Y19990000D01*
X51399900Y42970000D02*
X51399900Y42682500D01*
X52550000Y42970000D02*
X51399900Y42970000D01*
X5370100Y79921700D02*
X5370100Y80160000D01*
X6322400Y78969400D02*
X5370100Y79921700D01*
X28956600Y78969400D02*
X6322400Y78969400D01*
X32368800Y82381600D02*
X28956600Y78969400D01*
X38159000Y82381600D02*
X32368800Y82381600D01*
X42649900Y86872500D02*
X38159000Y82381600D01*
X42649900Y87160000D02*
X42649900Y86872500D01*
X43800000Y87160000D02*
X42649900Y87160000D01*
X4220000Y80160000D02*
X5370100Y80160000D01*
X41260000Y89700000D02*
X40109900Y89700000D01*
X6760000Y82700000D02*
X7910100Y82700000D01*
X30375300Y82700000D02*
X7910100Y82700000D01*
X31718500Y84043200D02*
X30375300Y82700000D01*
X34699400Y84043200D02*
X31718500Y84043200D01*
X37450000Y86793800D02*
X34699400Y84043200D01*
X37450000Y87524700D02*
X37450000Y86793800D01*
X38475200Y88549900D02*
X37450000Y87524700D01*
X39247400Y88549900D02*
X38475200Y88549900D01*
X40109900Y89412400D02*
X39247400Y88549900D01*
X40109900Y89700000D02*
X40109900Y89412400D01*
X11220000Y88549900D02*
X7910100Y85240000D01*
X36707400Y88549900D02*
X11220000Y88549900D01*
X37569900Y89412400D02*
X36707400Y88549900D01*
X37569900Y89700000D02*
X37569900Y89412400D01*
X38720000Y89700000D02*
X37569900Y89700000D01*
X6760000Y85240000D02*
X7910100Y85240000D01*
X7631700Y16060100D02*
X7870000Y16060100D01*
X6480200Y17211600D02*
X7631700Y16060100D01*
X6480200Y17955300D02*
X6480200Y17211600D01*
X5835300Y18600200D02*
X6480200Y17955300D01*
X5091400Y18600200D02*
X5835300Y18600200D01*
X4179900Y19511700D02*
X5091400Y18600200D01*
X4179900Y20478900D02*
X4179900Y19511700D01*
X5169800Y21468800D02*
X4179900Y20478900D01*
X20026200Y21468800D02*
X5169800Y21468800D01*
X41239900Y42682500D02*
X20026200Y21468800D01*
X41239900Y42970000D02*
X41239900Y42682500D01*
X42390000Y42970000D02*
X41239900Y42970000D01*
X7870000Y14910000D02*
X7870000Y16060100D01*
X4458300Y84089900D02*
X4220000Y84089900D01*
X5609800Y82938400D02*
X4458300Y84089900D01*
X5609800Y82194700D02*
X5609800Y82938400D01*
X6254700Y81549800D02*
X5609800Y82194700D01*
X29991100Y81549800D02*
X6254700Y81549800D01*
X31884400Y83443100D02*
X29991100Y81549800D01*
X35003100Y83443100D02*
X31884400Y83443100D01*
X38720000Y87160000D02*
X35003100Y83443100D01*
X4220000Y85240000D02*
X4220000Y84089900D01*
X11032500Y90902400D02*
X7910100Y87780000D01*
X34115000Y90902400D02*
X11032500Y90902400D01*
X35029900Y89987500D02*
X34115000Y90902400D01*
X35029900Y89700000D02*
X35029900Y89987500D01*
X36180000Y89700000D02*
X35029900Y89700000D01*
X6760000Y87780000D02*
X7910100Y87780000D01*
X36180000Y87160000D02*
X35029900Y87160000D01*
X4220000Y87780000D02*
X4220000Y86629900D01*
X7631700Y13520100D02*
X7870000Y13520100D01*
X6480200Y14671600D02*
X7631700Y13520100D01*
X6480200Y15415300D02*
X6480200Y14671600D01*
X5835300Y16060200D02*
X6480200Y15415300D01*
X5087800Y16060200D02*
X5835300Y16060200D01*
X3779700Y17368300D02*
X5087800Y16060200D01*
X3779700Y20656700D02*
X3779700Y17368300D01*
X5037300Y21914300D02*
X3779700Y20656700D01*
X15391700Y21914300D02*
X5037300Y21914300D01*
X36159900Y42682500D02*
X15391700Y21914300D01*
X36159900Y42970000D02*
X36159900Y42682500D01*
X7870000Y12370000D02*
X7870000Y13520100D01*
X4507600Y86629900D02*
X4220000Y86629900D01*
X5370100Y85767400D02*
X4507600Y86629900D01*
X5370100Y84941500D02*
X5370100Y85767400D01*
X6221800Y84089800D02*
X5370100Y84941500D01*
X31199300Y84089800D02*
X6221800Y84089800D01*
X31552800Y84443300D02*
X31199300Y84089800D01*
X32550500Y84443300D02*
X31552800Y84443300D01*
X35029900Y86922700D02*
X32550500Y84443300D01*
X35029900Y87160000D02*
X35029900Y86922700D01*
X37310000Y42970000D02*
X36159900Y42970000D01*
D18*
X81434900Y84315100D02*
X82750000Y83000000D01*
X71565100Y84315100D02*
X81434900Y84315100D01*
X70250000Y83000000D02*
X71565100Y84315100D01*
X28560000Y89700000D02*
X26020000Y89700000D01*
X28380000Y65740000D02*
X29030100Y65740000D01*
X29030100Y65740000D02*
X29680100Y65740000D01*
X29030100Y66329800D02*
X28380000Y66979900D01*
X29030100Y65740000D02*
X29030100Y66329800D01*
X28380000Y68280000D02*
X28380000Y66979900D01*
X29680100Y61960100D02*
X29680100Y65740000D01*
X28380000Y60660000D02*
X29680100Y61960100D01*
X36000000Y65740000D02*
X34699900Y65740000D01*
X29680100Y65740000D02*
X34699900Y65740000D01*
X34699900Y69519900D02*
X36000000Y70820000D01*
X34699900Y65740000D02*
X34699900Y69519900D01*
X39940000Y63200000D02*
X60170000Y42970000D01*
X36000000Y63200000D02*
X39940000Y63200000D01*
X81100000Y59184900D02*
X81100000Y56580000D01*
X77200000Y63084900D02*
X81100000Y59184900D01*
X77200000Y64385000D02*
X77200000Y63084900D01*
X8810100Y42970000D02*
X8110100Y43670000D01*
X22070000Y42970000D02*
X8810100Y42970000D01*
X6760000Y43670000D02*
X8110100Y43670000D01*
X28560000Y87160000D02*
X26020000Y87160000D01*
X17240100Y87160000D02*
X17100100Y87300000D01*
X26020000Y87160000D02*
X17240100Y87160000D01*
X15800000Y87300000D02*
X17100100Y87300000D01*
X54827900Y59203000D02*
X55949900Y60325000D01*
X45703600Y59203000D02*
X54827900Y59203000D01*
X43566300Y61340300D02*
X45703600Y59203000D01*
X43566300Y68333700D02*
X43566300Y61340300D01*
X36000000Y75900000D02*
X43566300Y68333700D01*
X57250000Y60325000D02*
X55949900Y60325000D01*
X57250000Y60325000D02*
X58550100Y60325000D01*
X66985000Y50025000D02*
X66985000Y51375100D01*
X58550100Y59024900D02*
X58550100Y60325000D01*
X66199900Y51375100D02*
X58550100Y59024900D01*
X66985000Y51375100D02*
X66199900Y51375100D01*
X67109900Y51500000D02*
X66985000Y51375100D01*
X81100000Y51500000D02*
X67109900Y51500000D01*
X84820000Y79625000D02*
X83519900Y79625000D01*
X81816800Y77921900D02*
X83519900Y79625000D01*
X76738600Y83000000D02*
X81816800Y77921900D01*
X72750000Y83000000D02*
X76738600Y83000000D01*
X82343100Y52743100D02*
X81100000Y51500000D01*
X82343100Y77395500D02*
X82343100Y52743100D01*
X81816800Y77921900D02*
X82343100Y77395500D01*
X2312800Y7767200D02*
X5330000Y4750000D01*
X2312800Y37662400D02*
X2312800Y7767200D01*
X6270200Y41619800D02*
X2312800Y37662400D01*
X4220000Y43670000D02*
X6270200Y41619800D01*
X23259800Y41619800D02*
X24610000Y42970000D01*
X6270200Y41619800D02*
X23259800Y41619800D01*
M02*
