G04 #@! TF.GenerationSoftware,KiCad,Pcbnew,(7.0.0-0)*
G04 #@! TF.CreationDate,2023-03-24T09:46:00+09:00*
G04 #@! TF.ProjectId,KZ80-SC1602,4b5a3830-2d53-4433-9136-30322e6b6963,rev?*
G04 #@! TF.SameCoordinates,PX5f5e100PY8f0d180*
G04 #@! TF.FileFunction,Copper,L2,Bot*
G04 #@! TF.FilePolarity,Positive*
%FSLAX46Y46*%
G04 Gerber Fmt 4.6, Leading zero omitted, Abs format (unit mm)*
G04 Created by KiCad (PCBNEW (7.0.0-0)) date 2023-03-24 09:46:00*
%MOMM*%
%LPD*%
G01*
G04 APERTURE LIST*
G04 #@! TA.AperFunction,ComponentPad*
%ADD10R,1.600000X1.600000*%
G04 #@! TD*
G04 #@! TA.AperFunction,ComponentPad*
%ADD11O,1.600000X1.600000*%
G04 #@! TD*
G04 #@! TA.AperFunction,ComponentPad*
%ADD12R,1.700000X1.700000*%
G04 #@! TD*
G04 #@! TA.AperFunction,ComponentPad*
%ADD13O,1.700000X1.700000*%
G04 #@! TD*
G04 #@! TA.AperFunction,ComponentPad*
%ADD14C,1.600000*%
G04 #@! TD*
G04 #@! TA.AperFunction,ComponentPad*
%ADD15C,1.440000*%
G04 #@! TD*
G04 #@! TA.AperFunction,ViaPad*
%ADD16C,0.600000*%
G04 #@! TD*
G04 #@! TA.AperFunction,Conductor*
%ADD17C,0.200000*%
G04 #@! TD*
G04 #@! TA.AperFunction,Conductor*
%ADD18C,0.600000*%
G04 #@! TD*
G04 APERTURE END LIST*
D10*
X57249999Y60324999D03*
D11*
X57249999Y62864999D03*
X57249999Y65404999D03*
X57249999Y67944999D03*
X57249999Y70484999D03*
X57249999Y73024999D03*
X57249999Y75564999D03*
X57249999Y78104999D03*
X57249999Y80644999D03*
D12*
X64444999Y50024999D03*
D13*
X66984999Y50024999D03*
X69524999Y50024999D03*
D14*
X82750000Y83000000D03*
X85250000Y83000000D03*
D15*
X81100000Y51500000D03*
X83640000Y54040000D03*
X81100000Y56580000D03*
D14*
X63445000Y56025000D03*
D11*
X73604999Y56024999D03*
D14*
X70250000Y83000000D03*
X72750000Y83000000D03*
D10*
X15799999Y87299999D03*
D14*
X15800000Y89800000D03*
D12*
X4219999Y87779999D03*
D13*
X6759999Y87779999D03*
X4219999Y85239999D03*
X6759999Y85239999D03*
X4219999Y82699999D03*
X6759999Y82699999D03*
X4219999Y80159999D03*
X6759999Y80159999D03*
X4219999Y77619999D03*
X6759999Y77619999D03*
X4219999Y75079999D03*
X6759999Y75079999D03*
X4219999Y72539999D03*
X6759999Y72539999D03*
D10*
X28379999Y75899999D03*
D11*
X28379999Y73359999D03*
X28379999Y70819999D03*
X28379999Y68279999D03*
X28379999Y65739999D03*
X28379999Y63199999D03*
X28379999Y60659999D03*
X35999999Y60659999D03*
X35999999Y63199999D03*
X35999999Y65739999D03*
X35999999Y68279999D03*
X35999999Y70819999D03*
X35999999Y73359999D03*
X35999999Y75899999D03*
D12*
X46259999Y78339999D03*
D13*
X48799999Y78339999D03*
X46259999Y75799999D03*
X48799999Y75799999D03*
X46259999Y73259999D03*
X48799999Y73259999D03*
X46259999Y70719999D03*
X48799999Y70719999D03*
X46259999Y68179999D03*
X48799999Y68179999D03*
X46259999Y65639999D03*
X48799999Y65639999D03*
X46259999Y63099999D03*
X48799999Y63099999D03*
X46259999Y60559999D03*
X48799999Y60559999D03*
D10*
X64449999Y79699999D03*
D11*
X64449999Y77159999D03*
X64449999Y74619999D03*
X64449999Y72079999D03*
X64449999Y69539999D03*
X64449999Y66999999D03*
X64449999Y64459999D03*
X64449999Y61919999D03*
X72069999Y61919999D03*
X72069999Y64459999D03*
X72069999Y66999999D03*
X72069999Y69539999D03*
X72069999Y72079999D03*
X72069999Y74619999D03*
X72069999Y77159999D03*
X72069999Y79699999D03*
D12*
X22069999Y42969999D03*
D13*
X24609999Y42969999D03*
X27149999Y42969999D03*
X29689999Y42969999D03*
X32229999Y42969999D03*
X34769999Y42969999D03*
X37309999Y42969999D03*
X39849999Y42969999D03*
X42389999Y42969999D03*
X44929999Y42969999D03*
X47469999Y42969999D03*
X50009999Y42969999D03*
X52549999Y42969999D03*
X55089999Y42969999D03*
X57629999Y42969999D03*
X60169999Y42969999D03*
D12*
X26019999Y87159999D03*
D13*
X26019999Y89699999D03*
X28559999Y87159999D03*
X28559999Y89699999D03*
X31099999Y87159999D03*
X31099999Y89699999D03*
X33639999Y87159999D03*
X33639999Y89699999D03*
X36179999Y87159999D03*
X36179999Y89699999D03*
X38719999Y87159999D03*
X38719999Y89699999D03*
X41259999Y87159999D03*
X41259999Y89699999D03*
X43799999Y87159999D03*
X43799999Y89699999D03*
X46339999Y87159999D03*
X46339999Y89699999D03*
X48879999Y87159999D03*
X48879999Y89699999D03*
X51419999Y87159999D03*
X51419999Y89699999D03*
X53959999Y87159999D03*
X53959999Y89699999D03*
X56499999Y87159999D03*
X56499999Y89699999D03*
X59039999Y87159999D03*
X59039999Y89699999D03*
X61579999Y87159999D03*
X61579999Y89699999D03*
X64119999Y87159999D03*
X64119999Y89699999D03*
X66659999Y87159999D03*
X66659999Y89699999D03*
X69199999Y87159999D03*
X69199999Y89699999D03*
X71739999Y87159999D03*
X71739999Y89699999D03*
X74279999Y87159999D03*
X74279999Y89699999D03*
D12*
X4219999Y58909999D03*
D13*
X6759999Y58909999D03*
X4219999Y56369999D03*
X6759999Y56369999D03*
X4219999Y53829999D03*
X6759999Y53829999D03*
X4219999Y51289999D03*
X6759999Y51289999D03*
X4219999Y48749999D03*
X6759999Y48749999D03*
X4219999Y46209999D03*
X6759999Y46209999D03*
X4219999Y43669999D03*
X6759999Y43669999D03*
D14*
X33850000Y79100000D03*
X36350000Y79100000D03*
D10*
X77199999Y79624999D03*
D11*
X77199999Y77084999D03*
X77199999Y74544999D03*
X77199999Y72004999D03*
X77199999Y69464999D03*
X77199999Y66924999D03*
X77199999Y64384999D03*
X84819999Y64384999D03*
X84819999Y66924999D03*
X84819999Y69464999D03*
X84819999Y72004999D03*
X84819999Y74544999D03*
X84819999Y77084999D03*
X84819999Y79624999D03*
D12*
X7869999Y4749999D03*
D13*
X5329999Y4749999D03*
X7869999Y7289999D03*
X5329999Y7289999D03*
X7869999Y9829999D03*
X5329999Y9829999D03*
X7869999Y12369999D03*
X5329999Y12369999D03*
X7869999Y14909999D03*
X5329999Y14909999D03*
X7869999Y17449999D03*
X5329999Y17449999D03*
X7869999Y19989999D03*
X5329999Y19989999D03*
D16*
X45994600Y80678300D03*
X59417200Y64073400D03*
D17*
X48135900Y80678300D02*
X45994600Y80678300D01*
X56149900Y72664300D02*
X48135900Y80678300D01*
X56149900Y72529300D02*
X56149900Y72664300D01*
X57094100Y71585100D02*
X56149900Y72529300D01*
X57250000Y71585100D02*
X57094100Y71585100D01*
X57250000Y70485000D02*
X57250000Y71585100D01*
X46260000Y60560000D02*
X47410100Y60560000D01*
X47410100Y60321700D02*
X47410100Y60560000D01*
X48347700Y59384100D02*
X47410100Y60321700D01*
X50434100Y59384100D02*
X48347700Y59384100D01*
X55123400Y64073400D02*
X50434100Y59384100D01*
X59417200Y64073400D02*
X55123400Y64073400D01*
X68374900Y51095100D02*
X68374900Y50025000D01*
X63445000Y56025000D02*
X68374900Y51095100D01*
X69525000Y50025000D02*
X68374900Y50025000D01*
X73605000Y52407900D02*
X73605000Y56025000D01*
X63009300Y41812200D02*
X73605000Y52407900D01*
X59650400Y41812200D02*
X63009300Y41812200D01*
X58780100Y42682500D02*
X59650400Y41812200D01*
X58780100Y42970000D02*
X58780100Y42682500D01*
X57630000Y42970000D02*
X58780100Y42970000D01*
X5091700Y10980100D02*
X5330000Y10980100D01*
X3316300Y12755500D02*
X5091700Y10980100D01*
X3316300Y20168800D02*
X3316300Y12755500D01*
X18902600Y35755100D02*
X3316300Y20168800D01*
X26692500Y35755100D02*
X18902600Y35755100D01*
X33619900Y42682500D02*
X26692500Y35755100D01*
X33619900Y42970000D02*
X33619900Y42682500D01*
X34770000Y42970000D02*
X33619900Y42970000D01*
X5330000Y9830000D02*
X5330000Y10980100D01*
X48800000Y60560000D02*
X48800000Y63100000D01*
X48800000Y63100000D02*
X48800000Y65640000D01*
X48800000Y65640000D02*
X48800000Y68180000D01*
X48800000Y73260000D02*
X48800000Y75800000D01*
X48800000Y75800000D02*
X48800000Y78340000D01*
X48800000Y68180000D02*
X48800000Y70720000D01*
X48800000Y70720000D02*
X48800000Y73260000D01*
X64120000Y89700000D02*
X64120000Y88549900D01*
X57250000Y73025000D02*
X57250000Y74125100D01*
X61675500Y74125100D02*
X57250000Y74125100D01*
X62530000Y74979600D02*
X61675500Y74125100D01*
X64159600Y73350000D02*
X62530000Y74979600D01*
X64745300Y73350000D02*
X64159600Y73350000D01*
X65554500Y72540800D02*
X64745300Y73350000D01*
X65554500Y69067100D02*
X65554500Y72540800D01*
X64587500Y68100100D02*
X65554500Y69067100D01*
X64450000Y68100100D02*
X64587500Y68100100D01*
X63832400Y88549900D02*
X64120000Y88549900D01*
X62969900Y87687400D02*
X63832400Y88549900D01*
X62969900Y75419500D02*
X62969900Y87687400D01*
X62530000Y74979600D02*
X62969900Y75419500D01*
X64450000Y67000000D02*
X64450000Y68100100D01*
X64120000Y81130100D02*
X64450000Y80800100D01*
X64120000Y87160000D02*
X64120000Y81130100D01*
X64450000Y79700000D02*
X64450000Y80800100D01*
X61580000Y89700000D02*
X61580000Y88549900D01*
X57250000Y78105000D02*
X57250000Y79205100D01*
X57409500Y79205100D02*
X57250000Y79205100D01*
X60429900Y82225500D02*
X57409500Y79205100D01*
X60429900Y87687400D02*
X60429900Y82225500D01*
X61292400Y88549900D02*
X60429900Y87687400D01*
X61580000Y88549900D02*
X61292400Y88549900D01*
X57250000Y75565000D02*
X57250000Y76665100D01*
X57409500Y76665100D02*
X57250000Y76665100D01*
X61580000Y80835600D02*
X57409500Y76665100D01*
X61580000Y87160000D02*
X61580000Y80835600D01*
X6760000Y58910000D02*
X6760000Y57759900D01*
X32230000Y42970000D02*
X31079900Y42970000D01*
X7870000Y9830000D02*
X6719900Y9830000D01*
X7910100Y54982900D02*
X21118400Y41774600D01*
X7910100Y56897400D02*
X7910100Y54982900D01*
X7047600Y57759900D02*
X7910100Y56897400D01*
X6760000Y57759900D02*
X7047600Y57759900D01*
X31079900Y42731700D02*
X31079900Y42970000D01*
X30122800Y41774600D02*
X31079900Y42731700D01*
X21118400Y41774600D02*
X30122800Y41774600D01*
X6719900Y9591700D02*
X6719900Y9830000D01*
X5767600Y8639400D02*
X6719900Y9591700D01*
X4855500Y8639400D02*
X5767600Y8639400D01*
X2916100Y10578800D02*
X4855500Y8639400D01*
X2916100Y23572300D02*
X2916100Y10578800D01*
X21118400Y41774600D02*
X2916100Y23572300D01*
X43800000Y89700000D02*
X43800000Y88549900D01*
X55090000Y42970000D02*
X55090000Y44120100D01*
X44087500Y88549900D02*
X43800000Y88549900D01*
X44973200Y87664200D02*
X44087500Y88549900D01*
X44973200Y54236900D02*
X44973200Y87664200D01*
X55090000Y44120100D02*
X44973200Y54236900D01*
X43800000Y52870100D02*
X52550000Y44120100D01*
X43800000Y86009900D02*
X43800000Y52870100D01*
X43800000Y87160000D02*
X43800000Y86009900D01*
X52550000Y42970000D02*
X52550000Y44120100D01*
X50010000Y42970000D02*
X50010000Y44120100D01*
X42410100Y51720000D02*
X50010000Y44120100D01*
X42410100Y87687400D02*
X42410100Y51720000D01*
X41547600Y88549900D02*
X42410100Y87687400D01*
X41260000Y88549900D02*
X41547600Y88549900D01*
X5330000Y17450000D02*
X6480100Y17450000D01*
X50010000Y42970000D02*
X48859900Y42970000D01*
X41260000Y89700000D02*
X41260000Y88549900D01*
X6480100Y17162500D02*
X6480100Y17450000D01*
X7395700Y16246900D02*
X6480100Y17162500D01*
X22375100Y16246900D02*
X7395700Y16246900D01*
X48859900Y42731700D02*
X22375100Y16246900D01*
X48859900Y42970000D02*
X48859900Y42731700D01*
X47470000Y42970000D02*
X46319900Y42970000D01*
X21036600Y17450000D02*
X7870000Y17450000D01*
X46319900Y42733300D02*
X21036600Y17450000D01*
X46319900Y42970000D02*
X46319900Y42733300D01*
X41260000Y49785000D02*
X41260000Y87160000D01*
X46319900Y44725100D02*
X41260000Y49785000D01*
X46319900Y42970000D02*
X46319900Y44725100D01*
X5370100Y82938300D02*
X5370100Y82700000D01*
X6401800Y83970000D02*
X5370100Y82938300D01*
X8380000Y83970000D02*
X6401800Y83970000D01*
X15336000Y90926000D02*
X8380000Y83970000D01*
X39192300Y90926000D02*
X15336000Y90926000D01*
X39990000Y90128300D02*
X39192300Y90926000D01*
X39990000Y88430000D02*
X39990000Y90128300D01*
X41260000Y87160000D02*
X39990000Y88430000D01*
X4220000Y82700000D02*
X5370100Y82700000D01*
X39990000Y49060100D02*
X44930000Y44120100D01*
X39990000Y87572000D02*
X39990000Y49060100D01*
X39012100Y88549900D02*
X39990000Y87572000D01*
X38720000Y88549900D02*
X39012100Y88549900D01*
X38720000Y89700000D02*
X38720000Y88549900D01*
X44930000Y42970000D02*
X44930000Y43545100D01*
X44930000Y43545100D02*
X44930000Y44120100D01*
X5091700Y16060100D02*
X5330000Y16060100D01*
X4131300Y17020500D02*
X5091700Y16060100D01*
X4131300Y17890300D02*
X4131300Y17020500D01*
X4961000Y18720000D02*
X4131300Y17890300D01*
X20104900Y18720000D02*
X4961000Y18720000D01*
X44930000Y43545100D02*
X20104900Y18720000D01*
X5330000Y14910000D02*
X5330000Y16060100D01*
X42390000Y42970000D02*
X42390000Y44120100D01*
X38720000Y47790100D02*
X38720000Y87160000D01*
X42390000Y44120100D02*
X38720000Y47790100D01*
X36180000Y89700000D02*
X36180000Y88549900D01*
X36467600Y88549900D02*
X36180000Y88549900D01*
X37330100Y87687400D02*
X36467600Y88549900D01*
X37330100Y86923300D02*
X37330100Y87687400D01*
X38285000Y85968400D02*
X37330100Y86923300D01*
X38285000Y45685100D02*
X38285000Y85968400D01*
X39850000Y44120100D02*
X38285000Y45685100D01*
X39850000Y42970000D02*
X39850000Y43545100D01*
X39850000Y43545100D02*
X39850000Y44120100D01*
X5330000Y12370000D02*
X5330000Y13520100D01*
X18075400Y21770500D02*
X39850000Y43545100D01*
X5483900Y21770500D02*
X18075400Y21770500D01*
X3731100Y20017700D02*
X5483900Y21770500D01*
X3731100Y14880700D02*
X3731100Y20017700D01*
X5091700Y13520100D02*
X3731100Y14880700D01*
X5330000Y13520100D02*
X5091700Y13520100D01*
X37452200Y44262300D02*
X37310000Y44120100D01*
X37452200Y84737700D02*
X37452200Y44262300D01*
X36180000Y86009900D02*
X37452200Y84737700D01*
X36180000Y87160000D02*
X36180000Y86009900D01*
X37310000Y42970000D02*
X37310000Y44120100D01*
D18*
X36000000Y65740000D02*
X36000000Y63200000D01*
X36000000Y73360000D02*
X36000000Y70820000D01*
X84820000Y77085000D02*
X83519900Y77085000D01*
X82750000Y77854900D02*
X83519900Y77085000D01*
X82750000Y83000000D02*
X82750000Y77854900D01*
X77200000Y74545000D02*
X78500100Y74545000D01*
X80979900Y74545000D02*
X83519900Y72005000D01*
X80979900Y74545000D02*
X83519900Y77085000D01*
X22070000Y42970000D02*
X22070000Y44320100D01*
X28380000Y50630100D02*
X22070000Y44320100D01*
X28380000Y60660000D02*
X28380000Y50630100D01*
X6760000Y43670000D02*
X6760000Y42319900D01*
X24669900Y89030900D02*
X24658100Y89019100D01*
X24669900Y89700000D02*
X24669900Y89030900D01*
X16580900Y89019100D02*
X15800000Y89800000D01*
X24658100Y89019100D02*
X16580900Y89019100D01*
X26020000Y89700000D02*
X24669900Y89700000D01*
X63144600Y70774600D02*
X64450000Y72080000D01*
X63144600Y63225400D02*
X63144600Y70774600D01*
X64450000Y61920000D02*
X63144600Y63225400D01*
X64450000Y61920000D02*
X64450000Y60619900D01*
X77200000Y64385000D02*
X75899900Y64385000D01*
X60170000Y56339900D02*
X64450000Y60619900D01*
X60170000Y42970000D02*
X60170000Y56339900D01*
X75899900Y63846300D02*
X75899900Y64385000D01*
X72673500Y60619900D02*
X75899900Y63846300D01*
X64450000Y60619900D02*
X72673500Y60619900D01*
X75899900Y68164900D02*
X77200000Y69465000D01*
X75899900Y64385000D02*
X75899900Y68164900D01*
X84820000Y72005000D02*
X83720000Y72005000D01*
X83720000Y72005000D02*
X83519900Y72005000D01*
X83519900Y68225100D02*
X84820000Y66925000D01*
X83519900Y72005000D02*
X83519900Y68225100D01*
X78500100Y74545000D02*
X80979900Y74545000D01*
X78500100Y70765100D02*
X77200000Y69465000D01*
X78500100Y74545000D02*
X78500100Y70765100D01*
X10429100Y76209100D02*
X6760000Y72540000D01*
X10429100Y84429100D02*
X10429100Y76209100D01*
X15800000Y89800000D02*
X10429100Y84429100D01*
X31668800Y79100000D02*
X33850000Y79100000D01*
X24658100Y86110700D02*
X31668800Y79100000D01*
X24658100Y89019100D02*
X24658100Y86110700D01*
X33850000Y75510000D02*
X36000000Y73360000D01*
X33850000Y79100000D02*
X33850000Y75510000D01*
X6468700Y3348700D02*
X7870000Y4750000D01*
X4775300Y3348700D02*
X6468700Y3348700D01*
X2316000Y5808000D02*
X4775300Y3348700D01*
X2316000Y37875900D02*
X2316000Y5808000D01*
X6760000Y42319900D02*
X2316000Y37875900D01*
X72750000Y81680100D02*
X72750000Y83000000D01*
X72070000Y81000100D02*
X72750000Y81680100D01*
X72070000Y79700000D02*
X72070000Y81000100D01*
X85250000Y81355100D02*
X85250000Y83000000D01*
X84820000Y80925100D02*
X85250000Y81355100D01*
X84820000Y79625000D02*
X84820000Y80925100D01*
X28560000Y87160000D02*
X28560000Y85809900D01*
X36000000Y75900000D02*
X36000000Y77200100D01*
X36043200Y79100000D02*
X36350000Y79100000D01*
X29333300Y85809900D02*
X36043200Y79100000D01*
X28560000Y85809900D02*
X29333300Y85809900D01*
X36043200Y77243300D02*
X36000000Y77200100D01*
X36043200Y79100000D02*
X36043200Y77243300D01*
X2869800Y68476200D02*
X5576800Y71183200D01*
X2869800Y45020200D02*
X2869800Y68476200D01*
X4220000Y43670000D02*
X2869800Y45020200D01*
X7357400Y71183200D02*
X5576800Y71183200D01*
X15800000Y79625800D02*
X7357400Y71183200D01*
X15800000Y87300000D02*
X15800000Y79625800D01*
X5576800Y71183200D02*
X4220000Y72540000D01*
M02*
