G04 #@! TF.GenerationSoftware,KiCad,Pcbnew,(7.0.0-0)*
G04 #@! TF.CreationDate,2023-03-24T09:46:00+09:00*
G04 #@! TF.ProjectId,KZ80-SC1602,4b5a3830-2d53-4433-9136-30322e6b6963,rev?*
G04 #@! TF.SameCoordinates,PX5f5e100PY8f0d180*
G04 #@! TF.FileFunction,Soldermask,Top*
G04 #@! TF.FilePolarity,Negative*
%FSLAX46Y46*%
G04 Gerber Fmt 4.6, Leading zero omitted, Abs format (unit mm)*
G04 Created by KiCad (PCBNEW (7.0.0-0)) date 2023-03-24 09:46:00*
%MOMM*%
%LPD*%
G01*
G04 APERTURE LIST*
%ADD10C,3.200000*%
%ADD11R,1.600000X1.600000*%
%ADD12O,1.600000X1.600000*%
%ADD13R,1.700000X1.700000*%
%ADD14O,1.700000X1.700000*%
%ADD15C,1.600000*%
%ADD16C,1.440000*%
G04 APERTURE END LIST*
D10*
X94480000Y33910000D03*
X4700000Y35050000D03*
X94490000Y95490000D03*
X5500000Y95420000D03*
D11*
X57249999Y60324999D03*
D12*
X57249999Y62864999D03*
X57249999Y65404999D03*
X57249999Y67944999D03*
X57249999Y70484999D03*
X57249999Y73024999D03*
X57249999Y75564999D03*
X57249999Y78104999D03*
X57249999Y80644999D03*
D13*
X64444999Y50024999D03*
D14*
X66984999Y50024999D03*
X69524999Y50024999D03*
D15*
X82750000Y83000000D03*
X85250000Y83000000D03*
D16*
X81100000Y51500000D03*
X83640000Y54040000D03*
X81100000Y56580000D03*
D15*
X63445000Y56025000D03*
D12*
X73604999Y56024999D03*
D15*
X70250000Y83000000D03*
X72750000Y83000000D03*
D11*
X15799999Y87299999D03*
D15*
X15800000Y89800000D03*
D13*
X4219999Y87779999D03*
D14*
X6759999Y87779999D03*
X4219999Y85239999D03*
X6759999Y85239999D03*
X4219999Y82699999D03*
X6759999Y82699999D03*
X4219999Y80159999D03*
X6759999Y80159999D03*
X4219999Y77619999D03*
X6759999Y77619999D03*
X4219999Y75079999D03*
X6759999Y75079999D03*
X4219999Y72539999D03*
X6759999Y72539999D03*
D11*
X28379999Y75899999D03*
D12*
X28379999Y73359999D03*
X28379999Y70819999D03*
X28379999Y68279999D03*
X28379999Y65739999D03*
X28379999Y63199999D03*
X28379999Y60659999D03*
X35999999Y60659999D03*
X35999999Y63199999D03*
X35999999Y65739999D03*
X35999999Y68279999D03*
X35999999Y70819999D03*
X35999999Y73359999D03*
X35999999Y75899999D03*
D13*
X46259999Y78339999D03*
D14*
X48799999Y78339999D03*
X46259999Y75799999D03*
X48799999Y75799999D03*
X46259999Y73259999D03*
X48799999Y73259999D03*
X46259999Y70719999D03*
X48799999Y70719999D03*
X46259999Y68179999D03*
X48799999Y68179999D03*
X46259999Y65639999D03*
X48799999Y65639999D03*
X46259999Y63099999D03*
X48799999Y63099999D03*
X46259999Y60559999D03*
X48799999Y60559999D03*
D11*
X64449999Y79699999D03*
D12*
X64449999Y77159999D03*
X64449999Y74619999D03*
X64449999Y72079999D03*
X64449999Y69539999D03*
X64449999Y66999999D03*
X64449999Y64459999D03*
X64449999Y61919999D03*
X72069999Y61919999D03*
X72069999Y64459999D03*
X72069999Y66999999D03*
X72069999Y69539999D03*
X72069999Y72079999D03*
X72069999Y74619999D03*
X72069999Y77159999D03*
X72069999Y79699999D03*
D13*
X22069999Y42969999D03*
D14*
X24609999Y42969999D03*
X27149999Y42969999D03*
X29689999Y42969999D03*
X32229999Y42969999D03*
X34769999Y42969999D03*
X37309999Y42969999D03*
X39849999Y42969999D03*
X42389999Y42969999D03*
X44929999Y42969999D03*
X47469999Y42969999D03*
X50009999Y42969999D03*
X52549999Y42969999D03*
X55089999Y42969999D03*
X57629999Y42969999D03*
X60169999Y42969999D03*
D13*
X26019999Y87159999D03*
D14*
X26019999Y89699999D03*
X28559999Y87159999D03*
X28559999Y89699999D03*
X31099999Y87159999D03*
X31099999Y89699999D03*
X33639999Y87159999D03*
X33639999Y89699999D03*
X36179999Y87159999D03*
X36179999Y89699999D03*
X38719999Y87159999D03*
X38719999Y89699999D03*
X41259999Y87159999D03*
X41259999Y89699999D03*
X43799999Y87159999D03*
X43799999Y89699999D03*
X46339999Y87159999D03*
X46339999Y89699999D03*
X48879999Y87159999D03*
X48879999Y89699999D03*
X51419999Y87159999D03*
X51419999Y89699999D03*
X53959999Y87159999D03*
X53959999Y89699999D03*
X56499999Y87159999D03*
X56499999Y89699999D03*
X59039999Y87159999D03*
X59039999Y89699999D03*
X61579999Y87159999D03*
X61579999Y89699999D03*
X64119999Y87159999D03*
X64119999Y89699999D03*
X66659999Y87159999D03*
X66659999Y89699999D03*
X69199999Y87159999D03*
X69199999Y89699999D03*
X71739999Y87159999D03*
X71739999Y89699999D03*
X74279999Y87159999D03*
X74279999Y89699999D03*
D13*
X4219999Y58909999D03*
D14*
X6759999Y58909999D03*
X4219999Y56369999D03*
X6759999Y56369999D03*
X4219999Y53829999D03*
X6759999Y53829999D03*
X4219999Y51289999D03*
X6759999Y51289999D03*
X4219999Y48749999D03*
X6759999Y48749999D03*
X4219999Y46209999D03*
X6759999Y46209999D03*
X4219999Y43669999D03*
X6759999Y43669999D03*
D15*
X33850000Y79100000D03*
X36350000Y79100000D03*
D11*
X77199999Y79624999D03*
D12*
X77199999Y77084999D03*
X77199999Y74544999D03*
X77199999Y72004999D03*
X77199999Y69464999D03*
X77199999Y66924999D03*
X77199999Y64384999D03*
X84819999Y64384999D03*
X84819999Y66924999D03*
X84819999Y69464999D03*
X84819999Y72004999D03*
X84819999Y74544999D03*
X84819999Y77084999D03*
X84819999Y79624999D03*
D13*
X7869999Y4749999D03*
D14*
X5329999Y4749999D03*
X7869999Y7289999D03*
X5329999Y7289999D03*
X7869999Y9829999D03*
X5329999Y9829999D03*
X7869999Y12369999D03*
X5329999Y12369999D03*
X7869999Y14909999D03*
X5329999Y14909999D03*
X7869999Y17449999D03*
X5329999Y17449999D03*
X7869999Y19989999D03*
X5329999Y19989999D03*
M02*
